HIERARCHY
ROOT root
{
	OFFSET 0.000000 0.000000 0.000000
	CHANNELS 6 Xposition Yposition Zposition Zrotation Yrotation Xrotation
	JOINT lhip
	{
		OFFSET 0.058581 -0.082280 -0.017664
		CHANNELS 3 Zrotation Yrotation Xrotation
		JOINT lknee
		{
			OFFSET 0.043451 -0.386469 0.008037
			CHANNELS 3 Zrotation Yrotation Xrotation
			JOINT lankle
			{
				OFFSET -0.014790 -0.426874 -0.037428
				CHANNELS 3 Zrotation Yrotation Xrotation
				JOINT ltoe
				{
					OFFSET 0.041054 -0.060286 0.122042
					CHANNELS 3 Zrotation Yrotation Xrotation
					End Site
					{
						OFFSET 0.000000 0.000000 0.000000
					}
				}
			}
		}
	}
	JOINT rhip
	{
		OFFSET -0.060310 -0.090513 -0.013543
		CHANNELS 3 Zrotation Yrotation Xrotation
		JOINT rknee
		{
			OFFSET -0.043257 -0.383688 -0.004843
			CHANNELS 3 Zrotation Yrotation Xrotation
			JOINT rankle
			{
				OFFSET 0.019056 -0.420046 -0.034562
				CHANNELS 3 Zrotation Yrotation Xrotation
				JOINT rtoe
				{
					OFFSET -0.034840 -0.062106 0.130323
					CHANNELS 3 Zrotation Yrotation Xrotation
					End Site
					{
						OFFSET 0.000000 0.000000 0.000000
					}
				}
			}
		}
	}
	JOINT lowerback
	{
		OFFSET 0.004439 0.124404 -0.038385
		CHANNELS 3 Zrotation Yrotation Xrotation
		JOINT upperback
		{
			OFFSET 0.004488 0.137956 0.026820
			CHANNELS 3 Zrotation Yrotation Xrotation
			JOINT chest
			{
				OFFSET -0.002265 0.056032 0.002855
				CHANNELS 3 Zrotation Yrotation Xrotation
				JOINT lowerneck
				{
					OFFSET -0.013390 0.211636 -0.033468
					CHANNELS 3 Zrotation Yrotation Xrotation
					JOINT upperneck
					{
						OFFSET 0.010113 0.088937 0.050410
						CHANNELS 3 Zrotation Yrotation Xrotation
						End Site
						{
							OFFSET 0.000000 0.000000 0.000000
						}
					}
				}
				JOINT lclavicle
				{
					OFFSET 0.071702 0.114000 -0.018898
					CHANNELS 3 Zrotation Yrotation Xrotation
					JOINT lshoulder
					{
						OFFSET 0.122921 0.045205 -0.019046
						CHANNELS 3 Zrotation Yrotation Xrotation
						JOINT lelbow
						{
							OFFSET 0.255332 -0.015649 -0.022946
							CHANNELS 3 Zrotation Yrotation Xrotation
							JOINT lwrist
							{
								OFFSET 0.265709 0.012698 -0.007375
								CHANNELS 3 Zrotation Yrotation Xrotation
								End Site
								{
									OFFSET 0.000000 0.000000 0.000000
								}
							}
						}
					}
				}
				JOINT rclavicle
				{
					OFFSET -0.082954 0.112472 -0.023707
					CHANNELS 3 Zrotation Yrotation Xrotation
					JOINT rshoulder
					{
						OFFSET -0.113228 0.046853 -0.008472
						CHANNELS 3 Zrotation Yrotation Xrotation
						JOINT relbow
						{
							OFFSET -0.260127 -0.014369 -0.031269
							CHANNELS 3 Zrotation Yrotation Xrotation
							JOINT rwrist
							{
								OFFSET -0.269108 0.006794 -0.006027
								CHANNELS 3 Zrotation Yrotation Xrotation
								End Site
								{
									OFFSET 0.000000 0.000000 0.000000
								}
							}
						}
					}
				}
			}
		}
	}
}
MOTION
Frames: 5
Frame Time: 0.033333
1.060730 0.245115 0.967586 -81.009410 16.654185 78.942764 18.077540 -2.591799 7.209739 -7.378083 -26.723222 31.401342 2.590511 12.275831 -36.579261 0.000000 -0.000000 0.000000 -15.103705 -6.897063 -17.546426 2.145664 -7.861655 22.138328 10.163196 -12.634290 6.814778 0.000000 -0.000000 0.000000 -6.909399 -0.129445 14.883338 5.564832 -4.339620 5.535497 2.537653 -5.906115 5.897209 10.995415 -13.344490 7.741033 5.798211 -18.946916 10.198834 -20.601126 11.451675 6.944022 -44.828113 -10.424292 4.199137 2.935403 -39.469411 8.572950 1.668291 -2.289608 -14.791202 26.314237 -9.419462 -2.791057 58.174953 -3.924057 11.461811 -10.333118 29.593780 -2.493054 4.722797 -0.434760 -4.853219 
1.047441 0.258733 0.961930 -80.527443 17.631031 78.900924 20.165541 -2.633245 7.323362 -7.792099 -27.592493 33.057846 2.410564 12.716823 -38.364939 0.000000 -0.000000 0.000000 -16.360097 -8.006311 -17.647045 2.330571 -7.336501 19.564444 10.864545 -12.814339 10.063726 0.000000 -0.000000 0.000000 -7.348322 -0.084189 14.593962 5.526353 -4.315108 4.824329 2.640144 -6.008264 5.788154 11.180131 -14.010642 8.599140 6.317270 -19.206544 10.396507 -20.035179 12.204895 7.612629 -42.902322 -10.555358 3.785661 1.340779 -41.197284 10.636644 1.183880 -2.534388 -14.862092 26.266870 -10.250330 -2.482272 58.177461 -4.683768 11.232322 -9.647836 29.093647 -1.924702 4.878366 -0.591728 -4.527480 
1.032540 0.274196 0.956128 -80.226180 18.483958 78.527299 22.299869 -2.840432 8.149742 -8.061630 -28.509697 34.310024 1.892061 12.984398 -40.016540 0.000000 -0.000000 0.000000 -17.406312 -8.930946 -17.508373 2.528753 -7.059305 17.882865 11.355011 -13.029478 11.316251 0.000000 -0.000000 0.000000 -8.066857 0.064549 14.027298 5.529430 -4.438004 4.938369 2.758395 -6.075991 5.770667 11.272674 -13.886085 9.543934 6.625146 -19.131946 10.516848 -19.330026 12.547106 8.062501 -40.963724 -10.546908 3.392005 -0.630492 -42.438815 11.879771 2.166973 -2.663407 -15.062073 26.360115 -11.068043 -2.462992 57.996899 -5.358876 10.973150 -8.765266 28.614605 -1.640798 4.066245 -0.714104 -3.855351 
1.015200 0.291185 0.948864 -79.251183 18.908554 78.751366 24.162648 -3.353818 8.617223 -8.126155 -29.274125 35.004965 1.495264 13.129622 -41.442021 0.000000 -0.000000 0.000000 -18.921298 -10.654000 -17.751194 2.893048 -7.203402 17.401073 12.238539 -13.070103 13.086462 0.000000 -0.000000 0.000000 -9.145554 0.365005 12.494350 5.439422 -5.268826 5.369899 2.752829 -6.571715 6.110863 11.523965 -13.592555 10.130777 6.929145 -19.150596 10.787017 -18.307108 13.067564 8.529423 -39.095897 -10.806533 3.083525 -2.298561 -43.219210 12.848631 3.210982 -2.951159 -15.647547 26.381152 -12.290843 -2.562943 57.850105 -6.022575 10.976197 -7.876317 28.132348 -1.220899 3.578798 -0.645573 -3.743806 
1.001006 0.308939 0.942556 -79.363859 19.598374 78.264035 26.571445 -2.825275 9.638384 -8.181298 -30.531883 35.602434 1.168134 13.222244 -42.846082 0.000000 -0.000000 0.000000 -19.318812 -10.913423 -18.029324 2.960729 -6.828209 16.524883 13.088395 -14.088043 17.168446 0.000000 -0.000000 0.000000 -9.834928 0.006456 12.975602 5.362632 -5.034512 5.072950 2.904547 -6.689140 5.670812 11.076837 -13.457009 10.996511 7.113867 -18.466804 11.093689 -17.823162 13.211910 9.309075 -36.991212 -10.642945 2.087572 -3.491244 -43.993358 13.535878 3.632660 -3.281922 -15.214662 25.941735 -12.859582 -2.410825 57.862842 -7.416146 10.638318 -7.379367 28.215521 -1.160712 3.159414 -0.508283 -3.245868 
